<svg width="24" height="25" viewBox="0 0 24 25" fill="none" xmlns="http://www.w3.org/2000/svg">
<mask id="mask0_287_2280" style="mask-type:alpha" maskUnits="userSpaceOnUse" x="0" y="0" width="24" height="25">
<rect y="0.5" width="24" height="24" fill="#D9D9D9"/>
</mask>
<g mask="url(#mask0_287_2280)">
<path d="M12 21.5C11.7167 21.5 11.4792 21.4042 11.2875 21.2125C11.0958 21.0208 11 20.7833 11 20.5V16.5C11 16.2167 11.0958 15.9792 11.2875 15.7875C11.4792 15.5958 11.7167 15.5 12 15.5C12.2833 15.5 12.5208 15.5958 12.7125 15.7875C12.9042 15.9792 13 16.2167 13 16.5V17.5H20C20.2833 17.5 20.5208 17.5958 20.7125 17.7875C20.9042 17.9792 21 18.2167 21 18.5C21 18.7833 20.9042 19.0208 20.7125 19.2125C20.5208 19.4042 20.2833 19.5 20 19.5H13V20.5C13 20.7833 12.9042 21.0208 12.7125 21.2125C12.5208 21.4042 12.2833 21.5 12 21.5ZM4 19.5C3.71667 19.5 3.47917 19.4042 3.2875 19.2125C3.09583 19.0208 3 18.7833 3 18.5C3 18.2167 3.09583 17.9792 3.2875 17.7875C3.47917 17.5958 3.71667 17.5 4 17.5H8C8.28333 17.5 8.52083 17.5958 8.7125 17.7875C8.90417 17.9792 9 18.2167 9 18.5C9 18.7833 8.90417 19.0208 8.7125 19.2125C8.52083 19.4042 8.28333 19.5 8 19.5H4ZM8 15.5C7.71667 15.5 7.47917 15.4042 7.2875 15.2125C7.09583 15.0208 7 14.7833 7 14.5V13.5H4C3.71667 13.5 3.47917 13.4042 3.2875 13.2125C3.09583 13.0208 3 12.7833 3 12.5C3 12.2167 3.09583 11.9792 3.2875 11.7875C3.47917 11.5958 3.71667 11.5 4 11.5H7V10.5C7 10.2167 7.09583 9.97917 7.2875 9.7875C7.47917 9.59583 7.71667 9.5 8 9.5C8.28333 9.5 8.52083 9.59583 8.7125 9.7875C8.90417 9.97917 9 10.2167 9 10.5V14.5C9 14.7833 8.90417 15.0208 8.7125 15.2125C8.52083 15.4042 8.28333 15.5 8 15.5ZM12 13.5C11.7167 13.5 11.4792 13.4042 11.2875 13.2125C11.0958 13.0208 11 12.7833 11 12.5C11 12.2167 11.0958 11.9792 11.2875 11.7875C11.4792 11.5958 11.7167 11.5 12 11.5H20C20.2833 11.5 20.5208 11.5958 20.7125 11.7875C20.9042 11.9792 21 12.2167 21 12.5C21 12.7833 20.9042 13.0208 20.7125 13.2125C20.5208 13.4042 20.2833 13.5 20 13.5H12ZM16 9.5C15.7167 9.5 15.4792 9.40417 15.2875 9.2125C15.0958 9.02083 15 8.78333 15 8.5V4.5C15 4.21667 15.0958 3.97917 15.2875 3.7875C15.4792 3.59583 15.7167 3.5 16 3.5C16.2833 3.5 16.5208 3.59583 16.7125 3.7875C16.9042 3.97917 17 4.21667 17 4.5V5.5H20C20.2833 5.5 20.5208 5.59583 20.7125 5.7875C20.9042 5.97917 21 6.21667 21 6.5C21 6.78333 20.9042 7.02083 20.7125 7.2125C20.5208 7.40417 20.2833 7.5 20 7.5H17V8.5C17 8.78333 16.9042 9.02083 16.7125 9.2125C16.5208 9.40417 16.2833 9.5 16 9.5ZM4 7.5C3.71667 7.5 3.47917 7.40417 3.2875 7.2125C3.09583 7.02083 3 6.78333 3 6.5C3 6.21667 3.09583 5.97917 3.2875 5.7875C3.47917 5.59583 3.71667 5.5 4 5.5H12C12.2833 5.5 12.5208 5.59583 12.7125 5.7875C12.9042 5.97917 13 6.21667 13 6.5C13 6.78333 12.9042 7.02083 12.7125 7.2125C12.5208 7.40417 12.2833 7.5 12 7.5H4Z" fill="white"/>
</g>
</svg>
